<?xml version="1.0" encoding="utf-8"?>

<svg version="1.1" id="图层_1" xmlns="http://www.w3.org/2000/svg" xmlns:xlink="http://www.w3.org/1999/xlink" x="0px" y="0px" viewBox="0 0 595.28 595.28" style="enable-background:new 0 0 595.28 595.28;" xml:space="preserve">

<g>
&#x9;<g>
&#x9;&#x9;<linearGradient id="SVGID_1_" gradientUnits="userSpaceOnUse" x1="315.8591" y1="334.6542" x2="225.7244" y2="256.84">
&#x9;&#x9;&#x9;<stop offset="0.0825" style="stop-color:#ECE9F4"></stop>
&#x9;&#x9;&#x9;<stop offset="1" style="stop-color:#4E3691"></stop>
&#x9;&#x9;</linearGradient>
&#x9;&#x9;<path class="st2" d="M286.49,280.73v35.69c-36.91,0-66.9-30.03-66.9-66.9c0-7.05,1.11-13.85,3.12-20.24&#xA;&#x9;&#x9;&#x9;c6.32,24.06,25.73,42.88,50.13,48.29C276.98,279.59,281.6,280.73,286.49,280.73z"></path>
&#x9;&#x9;
&#x9;&#x9;&#x9;<linearGradient id="SVGID_00000062168214519170486950000018203878760019939971_" gradientUnits="userSpaceOnUse" x1="253.8076" y1="278.3753" x2="299.1992" y2="221.96">
&#x9;&#x9;&#x9;<stop offset="0.0825" style="stop-color:#ECE9F4"></stop>
&#x9;&#x9;&#x9;<stop offset="1" style="stop-color:#4E3691"></stop>
&#x9;&#x9;</linearGradient>
&#x9;&#x9;<path style="fill:url(#SVGID_00000062168214519170486950000018203878760019939971_);" d="M353.39,249.52h-34.72&#xA;&#x9;&#x9;&#x9;c0-17.22-14.96-31.25-32.18-31.25c-9.96,0-18.85,4.69-24.55,12.01c-4.17,5.31-6.67,11.98-6.67,19.23&#xA;&#x9;&#x9;&#x9;c0,12.33,7.19,23.02,17.57,28.05c-24.41-5.42-43.82-24.23-50.13-48.29c7.5-23.54,27.67-41.49,52.53-45.69l0.03-0.03&#xA;&#x9;&#x9;&#x9;c3.65-0.62,7.4-0.94,11.21-0.94c5,0,9.9,0.56,14.58,1.63c17.01,3.75,31.59,14.03,41,28.05&#xA;&#x9;&#x9;&#x9;C349.23,222.96,353.39,235.74,353.39,249.52z"></path>
&#x9;</g>
&#x9;<g>
&#x9;&#x9;
&#x9;&#x9;&#x9;<linearGradient id="SVGID_00000017516607594263189060000014012660021439446656_" gradientUnits="userSpaceOnUse" x1="290.0052" y1="281.8887" x2="315.4541" y2="248.9807">
&#x9;&#x9;&#x9;<stop offset="0" style="stop-color:#ECE9F4"></stop>
&#x9;&#x9;&#x9;<stop offset="1" style="stop-color:#4E3691"></stop>
&#x9;&#x9;</linearGradient>
&#x9;&#x9;
&#x9;&#x9;&#x9;<rect x="286.49" y="249.52" style="fill:url(#SVGID_00000017516607594263189060000014012660021439446656_);" width="32.19" height="32.21"></rect>
&#x9;</g>
&#x9;<g>
&#x9;&#x9;
&#x9;&#x9;&#x9;<linearGradient id="SVGID_00000051360057488624016560000008970894593705181353_" gradientUnits="userSpaceOnUse" x1="369.5108" y1="337.1438" x2="322.0919" y2="283.2292">
&#x9;&#x9;&#x9;<stop offset="0" style="stop-color:#ECE9F4"></stop>
&#x9;&#x9;&#x9;<stop offset="1" style="stop-color:#4E3691"></stop>
&#x9;&#x9;</linearGradient>
&#x9;&#x9;
&#x9;&#x9;&#x9;<rect x="318.68" y="281.74" style="fill:url(#SVGID_00000051360057488624016560000008970894593705181353_);" width="34.72" height="34.68"></rect>
&#x9;</g>
&#x9;<g>
&#x9;&#x9;<path class="st0" d="M173.98,345.24h-11.2v-7.16h26.15l-3.34-5.91h10.36l3.34,5.91h24.35v7.16h-40.14l-1.39,4.73h39.44v25.67&#xA;&#x9;&#x9;&#x9;c0,1.81-0.64,3.35-1.91,4.62c-1.27,1.28-2.82,1.91-4.62,1.91h-17.67l2.36-6.4h10.3c0.65,0,1.18-0.22,1.6-0.66&#xA;&#x9;&#x9;&#x9;c0.42-0.44,0.62-0.96,0.62-1.57v-16.41H179.9l-7.58,25.04h-9.53L173.98,345.24z"></path>
&#x9;&#x9;<path class="st0" d="M262.81,375.22h9.74c0.6,0,1.11-0.21,1.53-0.63c0.42-0.42,0.63-0.93,0.63-1.53v-26.92h-42.29v-6.47h42.29&#xA;&#x9;&#x9;&#x9;v-7.03h9.32v7.03h9.18v6.47h-9.18v27.89c0,2.18-0.74,4-2.23,5.46c-1.49,1.46-3.29,2.19-5.42,2.19h-16L262.81,375.22z&#xA;&#x9;&#x9;&#x9; M247.79,350.6l7.79,25.88h-9.39l-7.72-25.88H247.79z"></path>
&#x9;&#x9;<path class="st0" d="M301.84,375.5l1.11-0.07V354.7h6.61v20.24l1.88-0.14v-22.4h-8.42v-20.52h23.37v12.87&#xA;&#x9;&#x9;&#x9;c0,2.09-0.68,3.85-2.05,5.29c-1.37,1.44-3.08,2.22-5.11,2.36v5.64h6.75v6.89h-6.75v9.32l6.89-0.49v6.82l-24.28,1.81V375.5z&#xA;&#x9;&#x9;&#x9; M316.94,346.84c0.65,0,1.18-0.21,1.6-0.63c0.42-0.42,0.63-0.93,0.63-1.53v-6.96h-8.9v9.11H316.94z M345.73,367.71l-7.37,14.61&#xA;&#x9;&#x9;&#x9;h-10.02l11.34-21.91h-11.34v-6.89h12.04v-13.43l-12.1,0.56v-6.89l34.64-1.6v6.89l-13.36,0.63v13.84h13.36v6.89h-13.43l-1.95,3.76&#xA;&#x9;&#x9;&#x9;h5.56l9.25,18.3h-9.18L345.73,367.71z"></path>
&#x9;&#x9;<path class="st0" d="M377.45,364.44h-5.84l0.14-0.28l5.91-15.09h-6.05v-6.4h15.37l-5.84,15.37h4.73l-3.2,11.48l5.08,6.54h44.52&#xA;&#x9;&#x9;&#x9;v6.33h-49.53l-2.71-3.34l-0.91,3.34h-7.44L377.45,364.44z M380.86,332.09l4.87,8.49h-9.18l-4.87-8.49H380.86z M387.61,352.06&#xA;&#x9;&#x9;&#x9;h17.81v-10.44l-15.37,1.81v-6.89l40.14-4.59v6.82l-15.65,1.81v11.48h17.74v6.89h-17.74v14.33h-9.11v-14.33h-17.81V352.06z"></path>
&#x9;</g>
&#x9;<g>
&#x9;&#x9;<path class="st0" d="M163,393.16h8.65v2.27h-5.84v3.59h4.48v2.23h-4.48v5.92H163V393.16z"></path>
&#x9;&#x9;<path class="st0" d="M189.65,395.87c1.79,0,3.01,0.84,3.67,1.77v-1.59h2.83v11.12h-2.83v-1.63c-0.66,0.97-1.93,1.81-3.69,1.81&#xA;&#x9;&#x9;&#x9;c-2.81,0-5.06-2.31-5.06-5.78C184.56,398.1,186.82,395.87,189.65,395.87z M190.37,398.34c-1.51,0-2.93,1.13-2.93,3.23&#xA;&#x9;&#x9;&#x9;s1.43,3.31,2.93,3.31c1.55,0,2.95-1.17,2.95-3.27C193.32,399.51,191.92,398.34,190.37,398.34z"></path>
&#x9;&#x9;<path class="st0" d="M218.34,401.03c0-1.79-0.98-2.75-2.47-2.75c-1.53,0-2.51,0.96-2.51,2.75v6.14h-2.81v-11.12h2.81v1.39&#xA;&#x9;&#x9;&#x9;c0.72-0.94,1.93-1.55,3.35-1.55c2.59,0,4.43,1.69,4.43,4.76v6.53h-2.81V401.03z"></path>
&#x9;&#x9;<path class="st0" d="M239.83,395.87c1.75,0,3.01,0.8,3.67,1.77v-1.59h2.83v11.21c0,3.01-1.84,5.4-5.5,5.4&#xA;&#x9;&#x9;&#x9;c-3.13,0-5.32-1.57-5.6-4.12h2.79c0.28,1,1.33,1.66,2.73,1.66c1.55,0,2.75-0.88,2.75-2.95v-1.73c-0.66,0.97-1.93,1.83-3.67,1.83&#xA;&#x9;&#x9;&#x9;c-2.83,0-5.08-2.31-5.08-5.78C234.75,398.1,237,395.87,239.83,395.87z M240.56,398.34c-1.51,0-2.93,1.13-2.93,3.23&#xA;&#x9;&#x9;&#x9;s1.43,3.31,2.93,3.31c1.55,0,2.95-1.17,2.95-3.27C243.51,399.51,242.1,398.34,240.56,398.34z"></path>
&#x9;&#x9;<path class="st0" d="M265.52,395.87c2.77,0,4.64,1.44,5.24,3.94h-3.03c-0.32-0.95-1.06-1.55-2.23-1.55&#xA;&#x9;&#x9;&#x9;c-1.57,0-2.61,1.18-2.61,3.35c0,2.17,1.04,3.33,2.61,3.33c1.17,0,1.89-0.52,2.23-1.53h3.03c-0.6,2.37-2.47,3.93-5.24,3.93&#xA;&#x9;&#x9;&#x9;c-3.21,0-5.5-2.25-5.5-5.74C260.02,398.12,262.31,395.87,265.52,395.87z"></path>
&#x9;&#x9;<path class="st0" d="M294.98,407.18h-2.83v-1.41c-0.7,0.95-1.93,1.55-3.31,1.55c-2.59,0-4.46-1.69-4.46-4.74v-6.53h2.81v6.12&#xA;&#x9;&#x9;&#x9;c0,1.79,0.98,2.75,2.47,2.75c1.53,0,2.49-0.97,2.49-2.75v-6.12h2.83V407.18z"></path>
&#x9;&#x9;<path class="st0" d="M317.19,401.03c0-1.79-0.98-2.75-2.47-2.75c-1.53,0-2.51,0.96-2.51,2.75v6.14h-2.81v-11.12h2.81v1.39&#xA;&#x9;&#x9;&#x9;c0.72-0.94,1.93-1.55,3.35-1.55c2.59,0,4.43,1.69,4.43,4.76v6.53h-2.81V401.03z"></path>
&#x9;&#x9;<path class="st0" d="M353.57,393.16v11.79h4.62v2.23h-7.43v-14.01H353.57z"></path>
&#x9;&#x9;<path class="st0" d="M376.48,407.36c-3.23,0-5.58-2.25-5.58-5.74c0-3.52,2.29-5.74,5.58-5.74c3.21,0,5.48,2.19,5.48,5.5&#xA;&#x9;&#x9;&#x9;c0,0.36-0.02,0.72-0.08,1.08h-8.13c0.14,1.65,1.26,2.57,2.67,2.57c1.2,0,1.87-0.6,2.23-1.34h3.03&#xA;&#x9;&#x9;&#x9;C381.08,405.73,379.23,407.36,376.48,407.36z M373.77,400.57h5.28c-0.04-1.47-1.21-2.39-2.65-2.39&#xA;&#x9;&#x9;&#x9;C375.06,398.18,373.99,399.05,373.77,400.57z"></path>
&#x9;&#x9;<path class="st0" d="M400.02,395.87c1.79,0,3.01,0.84,3.67,1.77v-1.59h2.83v11.12h-2.83v-1.63c-0.66,0.97-1.93,1.81-3.69,1.81&#xA;&#x9;&#x9;&#x9;c-2.81,0-5.06-2.31-5.06-5.78C394.94,398.1,397.19,395.87,400.02,395.87z M400.74,398.34c-1.51,0-2.93,1.13-2.93,3.23&#xA;&#x9;&#x9;&#x9;s1.43,3.31,2.93,3.31c1.55,0,2.95-1.17,2.95-3.27C403.69,399.51,402.29,398.34,400.74,398.34z"></path>
&#x9;&#x9;<path class="st0" d="M427.41,395.87c2.85,0,5.08,2.23,5.08,5.7c0,3.47-2.23,5.78-5.08,5.78c-1.75,0-2.99-0.86-3.67-1.77v6.89&#xA;&#x9;&#x9;&#x9;h-2.81v-16.42h2.81v1.61C424.4,396.72,425.68,395.87,427.41,395.87z M426.67,398.34c-1.51,0-2.93,1.17-2.93,3.28&#xA;&#x9;&#x9;&#x9;c0,2.11,1.42,3.27,2.93,3.27c1.53,0,2.95-1.2,2.95-3.31S428.19,398.34,426.67,398.34z"></path>
&#x9;</g>
</g>
</svg>