<?xml version="1.0" encoding="utf-8"?>

<svg version="1.1" id="图层_1" xmlns="http://www.w3.org/2000/svg" xmlns:xlink="http://www.w3.org/1999/xlink" x="0px" y="0px" viewBox="0 0 595.28 595.28" style="enable-background:new 0 0 595.28 595.28;" xml:space="preserve">

<g>
&#x9;<g>
&#x9;&#x9;<path class="st0" d="M173.98,270.6h-11.2v-7.16h26.15l-3.34-5.91h10.36l3.34,5.91h24.35v7.16h-40.14l-1.39,4.73h39.44V301&#xA;&#x9;&#x9;&#x9;c0,1.81-0.64,3.35-1.91,4.62c-1.27,1.28-2.82,1.91-4.62,1.91h-17.67l2.36-6.4h10.3c0.65,0,1.18-0.22,1.6-0.66&#xA;&#x9;&#x9;&#x9;c0.42-0.44,0.62-0.96,0.62-1.57V282.5H179.9l-7.58,25.04h-9.53L173.98,270.6z"></path>
&#x9;&#x9;<path class="st0" d="M262.81,300.59h9.74c0.6,0,1.11-0.21,1.53-0.63c0.42-0.42,0.63-0.93,0.63-1.53v-26.92h-42.29v-6.47h42.29&#xA;&#x9;&#x9;&#x9;v-7.03h9.32v7.03h9.18v6.47h-9.18v27.89c0,2.18-0.74,4-2.23,5.46c-1.49,1.46-3.29,2.19-5.42,2.19h-16L262.81,300.59z&#xA;&#x9;&#x9;&#x9; M247.79,275.96l7.79,25.88h-9.39l-7.72-25.88H247.79z"></path>
&#x9;&#x9;<path class="st0" d="M301.84,300.87l1.11-0.07v-20.73h6.61v20.24l1.88-0.14v-22.4h-8.42v-20.52h23.37v12.87&#xA;&#x9;&#x9;&#x9;c0,2.09-0.68,3.85-2.05,5.29c-1.37,1.44-3.08,2.22-5.11,2.36v5.64h6.75v6.89h-6.75v9.32l6.89-0.49v6.82l-24.28,1.81V300.87z&#xA;&#x9;&#x9;&#x9; M316.94,272.21c0.65,0,1.18-0.21,1.6-0.63c0.42-0.42,0.63-0.93,0.63-1.53v-6.96h-8.9v9.11H316.94z M345.73,293.07l-7.37,14.61&#xA;&#x9;&#x9;&#x9;h-10.02l11.34-21.91h-11.34v-6.89h12.04v-13.43l-12.1,0.56v-6.89l34.64-1.6v6.89l-13.36,0.63v13.84h13.36v6.89h-13.43l-1.95,3.76&#xA;&#x9;&#x9;&#x9;h5.56l9.25,18.3h-9.18L345.73,293.07z"></path>
&#x9;&#x9;<path class="st0" d="M377.45,289.81h-5.84l0.14-0.28l5.91-15.09h-6.05v-6.4h15.37l-5.84,15.37h4.73l-3.2,11.48l5.08,6.54h44.52&#xA;&#x9;&#x9;&#x9;v6.33h-49.53l-2.71-3.34l-0.91,3.34h-7.44L377.45,289.81z M380.86,257.46l4.87,8.49h-9.18l-4.87-8.49H380.86z M387.61,277.42&#xA;&#x9;&#x9;&#x9;h17.81v-10.44l-15.37,1.81v-6.89l40.14-4.59v6.82l-15.65,1.81v11.48h17.74v6.89h-17.74v14.33h-9.11v-14.33h-17.81V277.42z"></path>
&#x9;</g>
&#x9;<g>
&#x9;&#x9;<path class="st0" d="M163,318.53h8.65v2.27h-5.84v3.59h4.48v2.23h-4.48v5.92H163V318.53z"></path>
&#x9;&#x9;<path class="st0" d="M189.65,321.24c1.79,0,3.01,0.84,3.67,1.77v-1.59h2.83v11.12h-2.83v-1.63c-0.66,0.97-1.93,1.81-3.69,1.81&#xA;&#x9;&#x9;&#x9;c-2.81,0-5.06-2.31-5.06-5.78C184.56,323.47,186.82,321.24,189.65,321.24z M190.37,323.71c-1.51,0-2.93,1.13-2.93,3.23&#xA;&#x9;&#x9;&#x9;s1.43,3.31,2.93,3.31c1.55,0,2.95-1.17,2.95-3.27C193.32,324.87,191.92,323.71,190.37,323.71z"></path>
&#x9;&#x9;<path class="st0" d="M218.34,326.4c0-1.79-0.98-2.75-2.47-2.75c-1.53,0-2.51,0.96-2.51,2.75v6.14h-2.81v-11.12h2.81v1.39&#xA;&#x9;&#x9;&#x9;c0.72-0.94,1.93-1.55,3.35-1.55c2.59,0,4.43,1.69,4.43,4.76v6.53h-2.81V326.4z"></path>
&#x9;&#x9;<path class="st0" d="M239.83,321.24c1.75,0,3.01,0.8,3.67,1.77v-1.59h2.83v11.21c0,3.01-1.84,5.4-5.5,5.4&#xA;&#x9;&#x9;&#x9;c-3.13,0-5.32-1.57-5.6-4.12h2.79c0.28,1,1.33,1.66,2.73,1.66c1.55,0,2.75-0.88,2.75-2.95v-1.73c-0.66,0.97-1.93,1.83-3.67,1.83&#xA;&#x9;&#x9;&#x9;c-2.83,0-5.08-2.31-5.08-5.78C234.75,323.47,237,321.24,239.83,321.24z M240.56,323.71c-1.51,0-2.93,1.13-2.93,3.23&#xA;&#x9;&#x9;&#x9;s1.43,3.31,2.93,3.31c1.55,0,2.95-1.17,2.95-3.27C243.51,324.87,242.1,323.71,240.56,323.71z"></path>
&#x9;&#x9;<path class="st0" d="M265.52,321.24c2.77,0,4.64,1.44,5.24,3.94h-3.03c-0.32-0.95-1.06-1.55-2.23-1.55&#xA;&#x9;&#x9;&#x9;c-1.57,0-2.61,1.18-2.61,3.35c0,2.17,1.04,3.33,2.61,3.33c1.17,0,1.89-0.52,2.23-1.53h3.03c-0.6,2.37-2.47,3.93-5.24,3.93&#xA;&#x9;&#x9;&#x9;c-3.21,0-5.5-2.25-5.5-5.74C260.02,323.49,262.31,321.24,265.52,321.24z"></path>
&#x9;&#x9;<path class="st0" d="M294.98,332.54h-2.83v-1.41c-0.7,0.95-1.93,1.55-3.31,1.55c-2.59,0-4.46-1.69-4.46-4.74v-6.53h2.81v6.12&#xA;&#x9;&#x9;&#x9;c0,1.79,0.98,2.75,2.47,2.75c1.53,0,2.49-0.97,2.49-2.75v-6.12h2.83V332.54z"></path>
&#x9;&#x9;<path class="st0" d="M317.19,326.4c0-1.79-0.98-2.75-2.47-2.75c-1.53,0-2.51,0.96-2.51,2.75v6.14h-2.81v-11.12h2.81v1.39&#xA;&#x9;&#x9;&#x9;c0.72-0.94,1.93-1.55,3.35-1.55c2.59,0,4.43,1.69,4.43,4.76v6.53h-2.81V326.4z"></path>
&#x9;&#x9;<path class="st0" d="M353.57,318.53v11.79h4.62v2.23h-7.43v-14.01H353.57z"></path>
&#x9;&#x9;<path class="st0" d="M376.48,332.72c-3.23,0-5.58-2.25-5.58-5.74c0-3.52,2.29-5.74,5.58-5.74c3.21,0,5.48,2.19,5.48,5.5&#xA;&#x9;&#x9;&#x9;c0,0.36-0.02,0.72-0.08,1.08h-8.13c0.14,1.65,1.26,2.57,2.67,2.57c1.2,0,1.87-0.6,2.23-1.34h3.03&#xA;&#x9;&#x9;&#x9;C381.08,331.1,379.23,332.72,376.48,332.72z M373.77,325.94h5.28c-0.04-1.47-1.21-2.39-2.65-2.39&#xA;&#x9;&#x9;&#x9;C375.06,323.55,373.99,324.41,373.77,325.94z"></path>
&#x9;&#x9;<path class="st0" d="M400.02,321.24c1.79,0,3.01,0.84,3.67,1.77v-1.59h2.83v11.12h-2.83v-1.63c-0.66,0.97-1.93,1.81-3.69,1.81&#xA;&#x9;&#x9;&#x9;c-2.81,0-5.06-2.31-5.06-5.78C394.94,323.47,397.19,321.24,400.02,321.24z M400.74,323.71c-1.51,0-2.93,1.13-2.93,3.23&#xA;&#x9;&#x9;&#x9;s1.43,3.31,2.93,3.31c1.55,0,2.95-1.17,2.95-3.27C403.69,324.87,402.29,323.71,400.74,323.71z"></path>
&#x9;&#x9;<path class="st0" d="M427.41,321.24c2.85,0,5.08,2.23,5.08,5.7c0,3.47-2.23,5.78-5.08,5.78c-1.75,0-2.99-0.86-3.67-1.77v6.89&#xA;&#x9;&#x9;&#x9;h-2.81v-16.42h2.81v1.61C424.4,322.08,425.68,321.24,427.41,321.24z M426.67,323.71c-1.51,0-2.93,1.17-2.93,3.28&#xA;&#x9;&#x9;&#x9;c0,2.11,1.42,3.27,2.93,3.27c1.53,0,2.95-1.2,2.95-3.31S428.19,323.71,426.67,323.71z"></path>
&#x9;</g>
</g>
</svg>