<?xml version="1.0" encoding="utf-8"?>

<svg version="1.1" id="图层_1" xmlns="http://www.w3.org/2000/svg" xmlns:xlink="http://www.w3.org/1999/xlink" x="0px" y="0px" viewBox="0 0 595.28 595.28" style="enable-background:new 0 0 595.28 595.28;" xml:space="preserve">

<g>
&#x9;<path class="st0" d="M162.89,287.89h8.65v2.27h-5.84v3.59h4.48v2.23h-4.48v5.92h-2.81V287.89z"></path>
&#x9;<path class="st0" d="M189.54,290.6c1.79,0,3.01,0.84,3.67,1.77v-1.59h2.83v11.12h-2.83v-1.63c-0.66,0.97-1.93,1.81-3.69,1.81&#xA;&#x9;&#x9;c-2.81,0-5.06-2.31-5.06-5.78C184.46,292.83,186.71,290.6,189.54,290.6z M190.26,293.07c-1.51,0-2.93,1.13-2.93,3.23&#xA;&#x9;&#x9;s1.43,3.31,2.93,3.31c1.55,0,2.95-1.17,2.95-3.27C193.21,294.23,191.81,293.07,190.26,293.07z"></path>
&#x9;<path class="st0" d="M218.23,295.76c0-1.79-0.98-2.75-2.47-2.75c-1.53,0-2.51,0.96-2.51,2.75v6.14h-2.81v-11.12h2.81v1.39&#xA;&#x9;&#x9;c0.72-0.94,1.93-1.55,3.35-1.55c2.59,0,4.43,1.69,4.43,4.76v6.53h-2.81V295.76z"></path>
&#x9;<path class="st0" d="M239.73,290.6c1.75,0,3.01,0.8,3.67,1.77v-1.59h2.83v11.21c0,3.01-1.84,5.4-5.5,5.4&#xA;&#x9;&#x9;c-3.13,0-5.32-1.57-5.6-4.12h2.79c0.28,1,1.33,1.66,2.73,1.66c1.55,0,2.75-0.88,2.75-2.95v-1.73c-0.66,0.97-1.93,1.83-3.67,1.83&#xA;&#x9;&#x9;c-2.83,0-5.08-2.31-5.08-5.78C234.64,292.83,236.9,290.6,239.73,290.6z M240.45,293.07c-1.51,0-2.93,1.13-2.93,3.23&#xA;&#x9;&#x9;s1.43,3.31,2.93,3.31c1.55,0,2.95-1.17,2.95-3.27C243.4,294.23,242,293.07,240.45,293.07z"></path>
&#x9;<path class="st0" d="M265.41,290.6c2.77,0,4.64,1.44,5.24,3.94h-3.03c-0.32-0.95-1.06-1.55-2.23-1.55c-1.57,0-2.61,1.18-2.61,3.35&#xA;&#x9;&#x9;c0,2.17,1.04,3.33,2.61,3.33c1.17,0,1.89-0.52,2.23-1.53h3.03c-0.6,2.37-2.47,3.93-5.24,3.93c-3.21,0-5.5-2.25-5.5-5.74&#xA;&#x9;&#x9;C259.91,292.85,262.2,290.6,265.41,290.6z"></path>
&#x9;<path class="st0" d="M294.87,301.9h-2.83v-1.41c-0.7,0.95-1.93,1.55-3.31,1.55c-2.59,0-4.46-1.69-4.46-4.74v-6.53h2.81v6.12&#xA;&#x9;&#x9;c0,1.79,0.98,2.75,2.47,2.75c1.53,0,2.49-0.97,2.49-2.75v-6.12h2.83V301.9z"></path>
&#x9;<path class="st0" d="M317.09,295.76c0-1.79-0.98-2.75-2.47-2.75c-1.53,0-2.51,0.96-2.51,2.75v6.14h-2.81v-11.12h2.81v1.39&#xA;&#x9;&#x9;c0.72-0.94,1.93-1.55,3.35-1.55c2.59,0,4.43,1.69,4.43,4.76v6.53h-2.81V295.76z"></path>
&#x9;<path class="st0" d="M353.46,287.89v11.79h4.62v2.23h-7.43v-14.01H353.46z"></path>
&#x9;<path class="st0" d="M376.38,302.08c-3.23,0-5.58-2.25-5.58-5.74c0-3.52,2.29-5.74,5.58-5.74c3.21,0,5.48,2.19,5.48,5.5&#xA;&#x9;&#x9;c0,0.36-0.02,0.72-0.08,1.08h-8.13c0.14,1.65,1.26,2.57,2.67,2.57c1.2,0,1.87-0.6,2.23-1.34h3.03&#xA;&#x9;&#x9;C380.97,300.46,379.13,302.08,376.38,302.08z M373.66,295.3h5.28c-0.04-1.47-1.21-2.39-2.65-2.39&#xA;&#x9;&#x9;C374.95,292.91,373.88,293.77,373.66,295.3z"></path>
&#x9;<path class="st0" d="M399.91,290.6c1.79,0,3.01,0.84,3.67,1.77v-1.59h2.83v11.12h-2.83v-1.63c-0.66,0.97-1.93,1.81-3.69,1.81&#xA;&#x9;&#x9;c-2.81,0-5.06-2.31-5.06-5.78C394.83,292.83,397.08,290.6,399.91,290.6z M400.64,293.07c-1.51,0-2.93,1.13-2.93,3.23&#xA;&#x9;&#x9;s1.43,3.31,2.93,3.31c1.55,0,2.95-1.17,2.95-3.27C403.59,294.23,402.18,293.07,400.64,293.07z"></path>
&#x9;<path class="st0" d="M427.3,290.6c2.85,0,5.08,2.23,5.08,5.7c0,3.47-2.23,5.78-5.08,5.78c-1.75,0-2.99-0.86-3.67-1.77v6.89h-2.81&#xA;&#x9;&#x9;v-16.42h2.81v1.61C424.29,291.44,425.58,290.6,427.3,290.6z M426.56,293.07c-1.51,0-2.93,1.17-2.93,3.28&#xA;&#x9;&#x9;c0,2.11,1.42,3.27,2.93,3.27c1.53,0,2.95-1.2,2.95-3.31S428.09,293.07,426.56,293.07z"></path>
</g>
</svg>