<svg xmlns="http://www.w3.org/2000/svg" viewBox="0 0 100 100">
  <defs>
    <linearGradient id="bg" x1="0%" y1="0%" x2="100%" y2="100%">
      <stop offset="0%" stop-color="#2c3e50"/>
      <stop offset="100%" stop-color="#c0392b"/>
    </linearGradient>
  </defs>
  <circle cx="50" cy="50" r="48" fill="url(#bg)"/>
  <g transform="translate(50,50)">
    <path d="M 0,-36 A 36,36 0 0 0 0,36 A 18,18 0 0 0 0,0 A 18,18 0 0 1 0,-36 Z" fill="#f4f1ea"/>
    <path d="M 0,-36 A 36,36 0 0 1 0,36 A 18,18 0 0 1 0,0 A 18,18 0 0 0 0,-36 Z" fill="#1a1a1a"/>
    <circle cx="0" cy="-18" r="5" fill="#f4f1ea"/>
    <circle cx="0" cy="18" r="5" fill="#1a1a1a"/>
  </g>
</svg>
